<svg xmlns="http://www.w3.org/2000/svg" viewBox="0 0 154 101">
    <defs>
        <clipPath id="restaurant_a">
            <path fill="#fff" stroke="#707070" d="M4 0h146a4 4 0 0 1 4 4v96H0V4a4 4 0 0 1 4-4z" transform="translate(0 124)"/>
        </clipPath>
        <filter id="restaurant_b" width="40" height="40" x="25" y="25" filterUnits="userSpaceOnUse">
            <feOffset dy="3"/>
            <feGaussianBlur result="restaurant_c" stdDeviation="3"/>
            <feFlood flood-color="#222" flood-opacity=".1"/>
            <feComposite in2="restaurant_c" operator="in"/>
            <feComposite in="SourceGraphic"/>
        </filter>
        <filter id="restaurant_c" width="25" height="25" x="32.5" y="30.5" filterUnits="userSpaceOnUse">
            <feOffset dy="1"/>
            <feGaussianBlur result="restaurant_e" stdDeviation=".5"/>
            <feFlood flood-opacity=".1"/>
            <feComposite in2="restaurant_e" operator="in"/>
            <feComposite in="SourceGraphic"/>
        </filter>
        <filter id="restaurant_d" width="40" height="40" x="65" y="0" filterUnits="userSpaceOnUse">
            <feOffset dy="3"/>
            <feGaussianBlur result="restaurant_g" stdDeviation="3"/>
            <feFlood flood-color="#222" flood-opacity=".1"/>
            <feComposite in2="restaurant_g" operator="in"/>
            <feComposite in="SourceGraphic"/>
        </filter>
        <filter id="restaurant_e" width="25" height="25" x="72.5" y="5.5" filterUnits="userSpaceOnUse">
            <feOffset dy="1"/>
            <feGaussianBlur result="restaurant_i" stdDeviation=".5"/>
            <feFlood flood-opacity=".1"/>
            <feComposite in2="restaurant_i" operator="in"/>
            <feComposite in="SourceGraphic"/>
        </filter>
        <filter id="restaurant_f" width="40" height="40" x="58" y="58" filterUnits="userSpaceOnUse">
            <feOffset dy="3"/>
            <feGaussianBlur result="restaurant_k" stdDeviation="3"/>
            <feFlood flood-color="#222" flood-opacity=".1"/>
            <feComposite in2="restaurant_k" operator="in"/>
            <feComposite in="SourceGraphic"/>
        </filter>
        <filter id="restaurant_g" width="25" height="25" x="65.5" y="63.5" filterUnits="userSpaceOnUse">
            <feOffset dy="1"/>
            <feGaussianBlur result="restaurant_m" stdDeviation=".5"/>
            <feFlood flood-opacity=".1"/>
            <feComposite in2="restaurant_m" operator="in"/>
            <feComposite in="SourceGraphic"/>
        </filter>
    </defs>
    <g clip-path="url(#restaurant_a)" transform="translate(0 -123)">
        <path fill="#e6e4e0" d="M0 124h154v100H0z"/>
        <path fill="#fff" stroke="#d6d9e5" stroke-linejoin="round" stroke-width=".3" d="M66.5 224a3 3 0 0 0-1.4-2.8 3 3 0 0 0-1.4-.3 3.1 3.1 0 0 0-2 .8 2.7 2.7 0 0 0-1 1.4 5.3 5.3 0 0 0 0 1h-1.3v0a.8.8 0 0 0 0-.7 45.3 45.3 0 0 0-5-1.3l-3.9-1.2a.4.4 0 0 1-.2-.2.2.2 0 0 1 0-.3l.4-.1a1 1 0 0 1 .2 0h0l2.8.7 4.7-3.3-.4-.6-8.5-13.7L46 198l-3.9-7.4h0a9.8 9.8 0 0 0-1.3-2 4.6 4.6 0 0 0-1.1-.1H38.8a2.4 2.4 0 0 0-.8-.2 1.4 1.4 0 0 0-.6.1L18 200.3l-.5.3h0s0 0 0 0v0h0a8.7 8.7 0 0 1-1.9 1.2.6.6 0 0 1-.2 0 9.9 9.9 0 0 1-1.7-.3h0l-2.2 1.3a3.4 3.4 0 0 1 0 1.1 7.6 7.6 0 0 1-1.4 1.4v0s0 0 0 0l-10 6v-1.6h0v-.3h0v.3l9.4-5.7.6-.8-10 6.2v-1.7l10.7-6.4L0 183.6v-1.3L11.4 201l12.7-7.6-21.9-36.2a.4.4 0 0 1 0-.3.3.3 0 0 1 .1-.2.3.3 0 0 1 .2 0c.1 0 .3 0 .4.2L24.7 193l10.6-6.3h0l.1-.1a10.7 10.7 0 0 0 1-1 1.8 1.8 0 0 0 .2-.6h0v-.1a1.4 1.4 0 0 1 .2-.6 1.7 1.7 0 0 1 .1-.2h0v0a1 1 0 0 0 .3-.5 10 10 0 0 0-.4-1.2v0h0v-.2h0v0l-2.6-4.5-24.8-41.1s-.4-.6-.9-.7a2.1 2.1 0 0 0-.4 0 1.3 1.3 0 0 0-.4 0h0l-6.1 3.8v.6l.8 1.9.5.1 4.2 6.9 23.2 38.4s.2.5 0 .6-.7-.2-.7-.2l-27-45-.7-.2-1.7-2-.1-.2h0v-3.5l21.6-13h2.4L0 138.7v.2l24.3-15H24h3l-15.3 9.4a1 1 0 0 0-.4.6 11.9 11.9 0 0 0 1.4 2.6l7 12 .3-2.3 33.5-20a.9.9 0 0 1 .4 0h.2c.1.3-.2.7-.2.7L20.6 147l-.2 2.5 19.3 31.8a14 14 0 0 1 1.6.4 5.9 5.9 0 0 0 1.5.4.6.6 0 0 0 .2 0l12.3-7.5h.2a.8.8 0 0 1 .1-.2L75 162.6l1.2-1.3 1.5-1 1.8-.6 3.7-2.2 24.5-14.8h0s1.5-.7 1.7-1.2a2.6 2.6 0 0 0 .1-1v0h0v-.2a2.6 2.6 0 0 1 .2-1v0h0v0a7.6 7.6 0 0 0 .8-2 5.8 5.8 0 0 0-.3-1.6v0l-4.7-7.6-2.5-4h2.8l.3.3.5-.4h1.3l-1.5 1 6.1 9.9a1.7 1.7 0 0 0 .8.6 2 2 0 0 0 .8.2.2.2 0 0 1 0 0h.6a.6.6 0 0 1 .2 0 2.3 2.3 0 0 1 .4.1h0a5.2 5.2 0 0 0 1.5.5 5.7 5.7 0 0 0 1.6-.3c.3 0 3-1.7 8.4-5.1l.3-.2h.1a3.7 3.7 0 0 1 .6-.4h0l4.4-2.7-2.3-3.6h.8l2.1 3.3 5.2-3.3h5.5L120 138.2a3.2 3.2 0 0 0-1 .8 5.4 5.4 0 0 0-.3 2v0a5.4 5.4 0 0 1-.8 1.8 7.4 7.4 0 0 1-2.7 1.8 2.6 2.6 0 0 1-.7.1 13.7 13.7 0 0 1-1.8-.2h0l-1.4-.2a4.3 4.3 0 0 0-.7-.1.8.8 0 0 0-.4 0l-5.7 3.6a.6.6 0 0 0-.2.1h0s0 0 0 0l-23.1 14-1 .6-.6.9-1.8 1.2-1.2.2-1.2.7-16.8 10.2-14.2 8.6-.4.9-.4 1.5a1.6 1.6 0 0 0-.1 1 82 82 0 0 0 2.3 3.7h0l2.3 3.7 1.3 2 1.3 3 1.2 2.2 4.4 6.6 4.3 7 1.4 2.3.7.9h0a7.2 7.2 0 0 0 1.8.5l1.6.3a1.2 1.2 0 0 1 .2 0h0a4.5 4.5 0 0 0 1-.2c.5-.1 4.6-2.7 6-3.6h0s0 0 0 0h.1l17.2-10.6 21.2-12.8 21-12.7 21.2-13.8v3.5l-6 4.3-6.8 4.6-5.8 3.5-14 8.4-23 14-12.6 7.5-13.3 8-3 1.8a3.4 3.4 0 0 0-1.1.8 2.6 2.6 0 0 0-.4 1.4h-1.5zm-8-1.6h0a1.7 1.7 0 0 0 .7.2 1.2 1.2 0 0 0 .6-.2c.4-.2 0-2-.2-2.8v0l-.8-1.2-4 3zm-21.8-35.3l-22 13.3 22-13 1-.3-.4-.6zm74.3-47a3.1 3.1 0 1 0 3.1-3.1 3.1 3.1 0 0 0-3.1 3.1zm-110.3.1l.4.7-.2-.8zm20.2 73s-.3-.9.3-1.2a1 1 0 0 1 .5-.2 1 1 0 0 1 .7.3l7 11.9h-1.8zm.7-.7c-.2.2 0 .6.1.7l6.6 10.8h.3L22 212.7l-.4-.3a.1.1 0 0 0-.1 0zm127.6-9.6l-14.8-17.5a.8.8 0 0 1 0-1 .6.6 0 0 1 1 0l18.6 22v2.2zm-146 1.3L0 198.8v-1.3l4 6.4s.2.5 0 .7a.2.2 0 0 1-.2 0c-.3 0-.6-.4-.6-.4zm13.5-7.8L0 168.6v-1.2l17 28.2s.4.8.2 1a.2.2 0 0 1-.1 0 .7.7 0 0 1-.4-.2zM78 155.9l-17-27.7s-.2-.5 0-.7.6.2.6.2l17 27.8s.2.5 0 .6a.2.2 0 0 1 0 0 1 1 0 0 1-.6-.1zM60 126l-1.2-1.2h-.1l-2.6 1.2s-.4 0-.5-.1 0-.5 0-.5l1.9-1.3h2.7a8.5 8.5 0 0 1 .2 2 .2.2 0 0 1-.2 0 .6.6 0 0 1-.2 0z"/>
        <path fill="#fff" stroke="#d6d9e5" stroke-linejoin="round" stroke-width=".1" d="M41 224h-.6l-2.3-4a.4.4 0 0 0-.2 0 .2.2 0 0 0-.2 0l-2.4 1.5h0a1.3 1.3 0 0 1-.5.1.8.8 0 0 1 0 0h0a1.5 1.5 0 0 1-.6-.3s0 0 0 0l-1.4-2.1a1.3 1.3 0 0 1 0 .6 2.6 2.6 0 0 1-.5.8l2 3.4H34l-1.9-3.3-.7.4 1.7 3h-1.7l-1.3-2.2a.4.4 0 0 1 0-.3 1.7 1.7 0 0 1 .5-.5h0l1.4-.8h0a.5.5 0 0 0 .3-.1v0h0v0a1.2 1.2 0 0 0 .3-.8 2.2 2.2 0 0 0-.2-1l-1.8-2.7-3.2 1.9-.3-.3-1 .8-.4-.6 1-.7-1.1-2-2.3-1.3-.4-.6 3 1.7 1 1.5a.3.3 0 0 0 .2.1 1.2 1.2 0 0 0 .3 0l3.9-2.2h0l.2-.1h0l1.8-1 2.2-1 1.8-1 1.9-1.1.8-.5a1.3 1.3 0 0 1 .4 0 1.4 1.4 0 0 1 .5 0c.5.2.6.5.6.5l3.1 5 .7.1.2.2 3.2 5.5a9 9 0 0 1 .3 1.4v1l-1 1H47l1.3-1a4.1 4.1 0 0 0 0-1 9.8 9.8 0 0 0-.2-1.1v0h0l-3.1-5.6-.8-.2-3-5a1.2 1.2 0 0 0-.8-.5 1.2 1.2 0 0 0-.2 0 .9.9 0 0 0-.6.2l-2.3 1.4.6 1 2-1.2-.3-.5.2-.2.4.5.4-.2.3.2-6 3.6h-.3l-1-.9-2.8 2 3.4 5.4.2.2.4.1.4-.1 2.4-1.4-1.3-2.4v0c-.1-.3 0-.3 0-.4h0a.1.1 0 0 1 0 0c.2 0 .3.2.3.2l1.3 2.4.4.3L41 224h0zm-10.6-2.3v0l1.3 2.3h1l-1.8-2.7zm3.7-8.4l.8.8 2.8-1.7-.6-1zM22.4 224l-5.3-8.8a.4.4 0 0 1 0-.3.3.3 0 0 1 .1-.1l3.6-2.3v.4l-3.3 2v.2l.5.8a.2.2 0 0 1 0 0l1.3.2a.3.3 0 0 1 .2.2h0l2 3.8a.5.5 0 0 1 0 .3l-.4.9 1.7 2.7zm-2.5-5v.2l1 1.8.2-.6v-.3l-1-1.8zm-.3-.2l.4-1-.8-1.3-1-.1zm8.3 2.5l-.2-.3 1.4-.7v0a3.7 3.7 0 0 1 0-1l.2-.2a3 3 0 0 1 .6-.9 3.5 3.5 0 0 1 1.2-.6h0a.7.7 0 0 1 .6.3.9.9 0 0 1 0 .7l-1.5 1.5-1 .5-1.3.7h0zm2.7-3.1l-.7.5h0a2.3 2.3 0 0 0-.3.6l-.2.9v0l.4-.1.6-.6 1-1.1a.3.3 0 0 0-.2-.4.3.3 0 0 0 0 0 1 1 0 0 0-.6.2zm30-2.2l.3-.7-.2-2v-.3l-.5.4.2 2.3-.4-.7-.2-1.6 1-1 1-.8 3-1.8-4.4-7.8-4.8-8.5-.8-1.2a.4.4 0 0 1 0-.4c.1-.1.4.2.4.2l6 10.6 4 7 11.9-7.1 6.4-3.8.6-.4a3 3 0 0 0 .6-1.3 4 4 0 0 0 .1-1.6 8.5 8.5 0 0 0-1-1.5 1.7 1.7 0 0 1-.3-1 2.7 2.7 0 0 1 .4-1.4l2-2.4a21.1 21.1 0 0 0 1.7-2l1-2a.8.8 0 0 1 .2-.4 4.6 4.6 0 0 1 1-.5 4.7 4.7 0 0 0 1.2-.6l1-1s.2-.2.4 0-1 1.1-1 1.1l-1.3.8a5.9 5.9 0 0 0-.9.3 4 4 0 0 0-.5 1l-.8 1.5-2.2 2.6-1.4 1.7a1.6 1.6 0 0 0-.3 1 3 3 0 0 0 0 1 4.8 4.8 0 0 0 .7.9 1.7 1.7 0 0 1 .5 1 3.8 3.8 0 0 1 0 1.5 4 4 0 0 1-.8 1.5c-.4.4-7.8 4.7-7.8 4.7l-13 7.6-2.2 1.3-.5.6.3 2.2v.9l-.2.5zM35 196.8l.2-.3 7.5-4.6.2.4-7.5 4.6a.5.5 0 0 1-.2 0 .3.3 0 0 1-.2 0zm13.8-.8l-.2-.4a7.2 7.2 0 0 0 .2-1l-.2-.1-.5.6-.1-.3.3-.6-1.7-2.6a.7.7 0 0 1-.2-.7.6.6 0 0 1 .5-.5l6.2-3.7 8-4.8 4.5-2.7 4.3-3 2.5-1.9 3.8-2 6.3-3.4a.7.7 0 0 1 .3-.1.3.3 0 0 1 .2 0 .1.1 0 0 1 0 .2l-.2.2-.9.5-5.4 3-4 2-4 3-3.5 2.4-4.1 2.5-8.5 4.9 2.2 3.5 1.4-.8a.6.6 0 0 1 .2 0l.2.1a.2.2 0 0 1-.1.3l-1.4.7-1.5.8a1 1 0 0 1 0 0l-4.2 2.5a.8.8 0 0 0-.2.5l-.2 1h0zm3.3-8.3h0c-.9.5-5.2 3-5.3 3.3a.5.5 0 0 0 0 .4l2 2.8.2.2 5.3-3.2-2.2-3.5h0zM36 175l19.5-12s.2-.1.4 0-.3.5-.3.5l-2.4 1.5 3.5 5.4s.1.3 0 .3l-.3-.2-3.5-5.4L36 175.4zM19.4 170l.8-.6-.7-1.3-.9.6-.2-.3 7.3-4.4.1.2-5.9 3.6-.1.2.6 1s.3.3.2.5v.2l-1 .6zm97.8-34.6l-1.9-.4a7.8 7.8 0 0 1-1.7-.6 18.5 18.5 0 0 1-1.4-1.8l-4-6.4a2.1 2.1 0 0 1-.3-.9c0-.5.6-.8.6-.8l.7-.4h.9l-.6.3-1 .6a.8.8 0 0 0-.2.5 2.7 2.7 0 0 0 .2.7l3 4.7 11-6.8h.8l-11.7 7.1 1.8 2.6a1.8 1.8 0 0 0 .8.5l2.8.7a1 1 0 0 0 .8-.2l6.9-4.1 4.8-2.8s.2-.1.2-.5a2.2 2.2 0 0 0-.3-.8L128 124h.5l1.7 2.7a1.5 1.5 0 0 1 0 .8 1 1 0 0 1-.4.6l-11.6 7a2.1 2.1 0 0 1-.7.2.2.2 0 0 1 0 0z"/>
        <g fill="#ededcf">
            <path d="M40.3 187a1.9 1.9 0 1 1 0-3.8 1.9 1.9 0 0 1 0 3.8z"/>
            <path fill="#d6d9e5" d="M40.3 183.4a1.7 1.7 0 1 0 0 3.4 1.7 1.7 0 0 0 0-3.4m0-.3a2 2 0 1 1 0 4 2 2 0 0 1 0-4z"/>
        </g>
        <path fill="rgba(145,43,154,0.07)" d="M0 211.4l10.5-6.4a1.8 1.8 0 0 0 .7-.8c.2-.6 0-1 .2-1.4l2.3-1.4c.5-.4 1 .4 1.5.4a3 3 0 0 0 1.2-.5l20.8-12.7a3 3 0 0 1 1.8-.4c.9 0 2.2.6 3.2 0s1.2-1.9 1.7-2.7a5.2 5.2 0 0 1 1.6-2l31-18.7a4.8 4.8 0 0 0 1.3-.5A13.9 13.9 0 0 0 80 163l.7-.8 29.4-17.9a2 2 0 0 1 .8-.3 2.3 2.3 0 0 1 1.5.1 9.7 9.7 0 0 0 2.9.5 4.8 4.8 0 0 0 2.7-2 7.2 7.2 0 0 0 .7-2.4c.2-.9 0-1.2.8-1.8l23.8-14.4H154v42.2l-15 10-71.4 43.3a2.3 2.3 0 0 1-1.5.5 21.3 21.3 0 0 0-2.7-.5 3.4 3.4 0 0 0-2 .6 4.3 4.3 0 0 0-1.7 2.2l-.3 1.7H0z"/>
        <path fill="rgba(145,43,154,0.15)" d="M35.4 186.5s1-.5 1.1-1.1.5-2.7 1.6-3.3a4.8 4.8 0 0 1 3-.6c.8.2 1.3.6 2 .4s7.5-4.6 7.5-4.6L75 162.4a6.2 6.2 0 0 1 .8-.8A10.4 10.4 0 0 1 78 160l1.3-.3 29.1-17.8a7.3 7.3 0 0 0 1.2-.8c.3-.4-.3-1.3 0-2a20 20 0 0 0 .8-2.2 8.5 8.5 0 0 0-1-2.3L103 124H27.2L0 140.6v67.3z"/>
    </g>
    <g filter="url(#restaurant_b)">
        <path fill="#fff" d="M45 31a11 11 0 1 1-11 11 11 11 0 0 1 11-11z"/>
    </g>
    <g filter="url(#restaurant_c)">
        <path fill="#fff" d="M45 31a11 11 0 1 1-11 11 11 11 0 0 1 11-11z"/>
    </g>
    <path fill="#bb85bc" d="M45 33a9 9 0 1 1-9 9 9 9 0 0 1 9-9z"/>
    <path fill="#fff" d="M44.5 40.7h-.9v-3.2h-.9v3.2h-.9v-3.2H41v3.2a1.8 1.8 0 0 0 1.7 1.7v4h1.2v-4a1.8 1.8 0 0 0 1.7-1.7v-3.2h-1zm2.3-1.4V43H48v3.6h1v-9a2.2 2.2 0 0 0-2.2 1.8z"/>
    <g filter="url(#restaurant_d)">
        <path fill="#fff" d="M85 6a11 11 0 1 1-11 11A11 11 0 0 1 85 6z"/>
    </g>
    <g filter="url(#restaurant_e)">
        <path fill="#fff" d="M85 6a11 11 0 1 1-11 11A11 11 0 0 1 85 6z"/>
    </g>
    <path fill="#bb85bc" d="M85 8a9 9 0 1 1-9 9 9 9 0 0 1 9-9z"/>
    <path fill="#fff" d="M84.5 15.7h-.9v-3.2h-.9v3.2h-.9v-3.2H81v3.2a1.8 1.8 0 0 0 1.7 1.7v4h1.2v-4a1.8 1.8 0 0 0 1.7-1.7v-3.2h-1zm2.3-1.4V18H88v3.6h1v-9a2.2 2.2 0 0 0-2.2 1.8z"/>
    <g>
        <g filter="url(#restaurant_f)">
            <path fill="#fff" d="M78 64a11 11 0 1 1-11 11 11 11 0 0 1 11-11z"/>
        </g>
        <g filter="url(#restaurant_g)">
            <path fill="#fff" d="M78 64a11 11 0 1 1-11 11 11 11 0 0 1 11-11z"/>
        </g>
        <path fill="#bb85bc" d="M78 66a9 9 0 1 1-9 9 9 9 0 0 1 9-9z"/>
        <path fill="#fff" d="M77.5 73.7h-.9v-3.2h-.9v3.2h-.9v-3.2H74v3.2a1.8 1.8 0 0 0 1.7 1.7v4h1.2v-4a1.8 1.8 0 0 0 1.7-1.7v-3.2h-1zm2.3-1.4V76H81v3.6h1v-9a2.2 2.2 0 0 0-2.2 1.8z"/>
    </g>
</svg>
